<!DOCTYPE svg PUBLIC "-//W3C//DTD SVG 1.1//EN" "http://www.w3.org/Graphics/SVG/1.1/DTD/svg11.dtd">
<!-- Uploaded to: SVG Repo, www.svgrepo.com, Transformed by: SVG Repo Mixer Tools -->
<svg width="800px" height="800px" viewBox="0 0 48.00 48.00" xmlns="http://www.w3.org/2000/svg" fill="#ff0000" stroke="#ff0000">
<g id="SVGRepo_bgCarrier" stroke-width="0"/>
<g id="SVGRepo_tracerCarrier" stroke-linecap="round" stroke-linejoin="round" stroke="#CCCCCC" stroke-width="2.976">
<defs>
<style>.a{fill:none;stroke:#ff0000;stroke-linecap:round;stroke-linejoin:round;}</style>
</defs>
<path class="a" d="M24,2.5A21.5148,21.5148,0,1,0,42.8164,13.6094c-11.2289,7.2877-19.31,19.875-19.31,19.875L12.7051,21.4492l2.8281-2.6758L22.8887,24s10.0964-8.3689,18.4922-12.6465A21.5,21.5,0,0,0,24,2.5Z"/>
</g>
<g id="SVGRepo_iconCarrier">
<defs>
<style>.a{fill:none;stroke:#ff0000;stroke-linecap:round;stroke-linejoin:round;}</style>
</defs>
<path class="a" d="M24,2.5A21.5148,21.5148,0,1,0,42.8164,13.6094c-11.2289,7.2877-19.31,19.875-19.31,19.875L12.7051,21.4492l2.8281-2.6758L22.8887,24s10.0964-8.3689,18.4922-12.6465A21.5,21.5,0,0,0,24,2.5Z"/>
</g>
</svg>